<svg width="24" height="24" viewBox="0 0 24 24" fill="none" xmlns="http://www.w3.org/2000/svg">
<path d="M18.5 3.00006C18.8676 3.00017 19.2306 3.08132 19.5632 3.23775C19.8958 3.39417 20.1898 3.62201 20.4244 3.90505C20.6589 4.18808 20.8281 4.51935 20.9199 4.87525C21.0118 5.23114 21.0241 5.60292 20.9558 5.9641C20.8876 6.32527 20.7406 6.66696 20.5252 6.96483C20.3099 7.26269 20.0315 7.5094 19.7099 7.68739C19.3883 7.86538 19.0314 7.97027 18.6646 7.99458C18.2979 8.0189 17.9303 7.96204 17.588 7.82806L13.032 12.3831C13.781 13.468 14.1133 14.7867 13.968 16.0971L16.592 16.8841C16.9634 16.446 17.4743 16.1491 18.0388 16.0434C18.6033 15.9376 19.187 16.0295 19.6918 16.3035C20.1965 16.5775 20.5915 17.017 20.8104 17.548C21.0292 18.079 21.0586 18.6691 20.8935 19.2192C20.7284 19.7693 20.379 20.2458 19.9039 20.5686C19.4288 20.8913 18.8571 21.0406 18.2849 20.9915C17.7127 20.9423 17.1748 20.6976 16.7618 20.2985C16.3488 19.8994 16.0858 19.3703 16.017 18.8001L13.394 18.0121C12.8395 19.0937 11.9424 19.9612 10.8427 20.479C9.74303 20.9968 8.50281 21.1357 7.31583 20.8741C6.12884 20.6125 5.06195 19.9651 4.28185 19.0329C3.50176 18.1008 3.0524 16.9366 3.004 15.7221L3 15.5001L3.004 15.2791C3.04297 14.3057 3.33979 13.3601 3.86408 12.539C4.38837 11.718 5.12133 11.0509 5.988 10.6061L5.2 7.98206C4.62353 7.91285 4.08917 7.64498 3.68877 7.22451C3.28837 6.80404 3.04695 6.25723 3.006 5.67806L3 5.50006L3.005 5.33606C3.03206 4.92404 3.16074 4.52515 3.37956 4.175C3.59838 3.82484 3.90052 3.53434 4.25899 3.32944C4.61746 3.12453 5.0211 3.01161 5.43386 3.00074C5.84662 2.98988 6.25564 3.08142 6.62439 3.26719C6.99314 3.45295 7.31014 3.72716 7.54707 4.06532C7.78401 4.40348 7.93349 4.79505 7.98218 5.20507C8.03087 5.61509 7.97725 6.03079 7.8261 6.41503C7.67496 6.79927 7.43099 7.1401 7.116 7.40706L7.903 10.0321C9.21331 9.88673 10.5321 10.2191 11.617 10.9681L16.172 6.41206C16.078 6.17285 16.0217 5.92052 16.005 5.66406L16 5.50006L16.005 5.33606C16.0466 4.70271 16.3276 4.10891 16.791 3.6751C17.2543 3.24129 17.8653 2.99996 18.5 3.00006Z" fill="black"/>
</svg>
