<svg width="24" height="24" viewBox="0 0 24 24" fill="none" xmlns="http://www.w3.org/2000/svg">
<path d="M16 6.07197C17.2057 6.76809 18.2088 7.7668 18.9103 8.96939C19.6118 10.172 19.9872 11.5368 19.9996 12.929C20.012 14.3211 19.6609 15.6924 18.9809 16.9073C18.301 18.1222 17.3157 19.1386 16.1226 19.856C14.9295 20.5735 13.5698 20.9672 12.1779 20.9981C10.7861 21.0291 9.41021 20.6963 8.18636 20.0327C6.96251 19.369 5.93304 18.3975 5.19971 17.214C4.46637 16.0306 4.05457 14.6763 4.005 13.285L4 13L4.005 12.715C4.05419 11.3357 4.45937 9.99265 5.18115 8.8163C5.90292 7.63995 6.91675 6.67034 8.12409 6.0017C9.33143 5.33305 10.6912 4.98813 12.0713 5.00044C13.4514 5.01275 14.8048 5.38189 16 6.07197ZM12 8.99997C11.7348 8.99997 11.4804 9.10532 11.2929 9.29286C11.1054 9.4804 11 9.73475 11 9.99997V13L11.007 13.117C11.0357 13.3602 11.1526 13.5845 11.3356 13.7473C11.5187 13.91 11.7551 13.9999 12 14H14L14.117 13.993C14.3603 13.9643 14.5845 13.8474 14.7473 13.6643C14.91 13.4813 15 13.2449 15 13L14.993 12.883C14.9643 12.6397 14.8474 12.4154 14.6644 12.2527C14.4813 12.0899 14.2449 12 14 12H13V9.99997L12.993 9.88297C12.9643 9.63972 12.8474 9.41544 12.6644 9.25268C12.4813 9.08992 12.2449 9 12 8.99997Z" fill="black"/>
<path d="M6.412 3.19105C6.61766 3.03833 6.87408 2.97036 7.12838 3.00115C7.38268 3.03194 7.61547 3.15914 7.77874 3.35653C7.94201 3.55391 8.0233 3.80642 8.00586 4.06199C7.98842 4.31755 7.87357 4.55668 7.685 4.73005L7.588 4.81005L4.838 6.81005C4.63242 6.96517 4.37492 7.03499 4.11913 7.00497C3.86335 6.97496 3.62901 6.84741 3.46493 6.64892C3.30085 6.45042 3.21967 6.19627 3.23831 5.93941C3.25695 5.68255 3.37397 5.44278 3.565 5.27005L3.662 5.19005L6.412 3.19105Z" fill="black"/>
<path d="M16.191 3.41206C16.3342 3.21508 16.5444 3.07714 16.7821 3.02412C17.0198 2.97109 17.2686 3.00663 17.482 3.12406L17.588 3.19106L20.338 5.19106C20.5437 5.34064 20.6846 5.56296 20.7322 5.81278C20.7797 6.06261 20.7303 6.32117 20.594 6.53585C20.4577 6.75053 20.2447 6.90521 19.9983 6.96841C19.752 7.03161 19.4908 6.99859 19.268 6.87606L19.162 6.80906L16.412 4.80906C16.3058 4.73177 16.2159 4.63434 16.1474 4.5223C16.0789 4.41027 16.0331 4.28584 16.0127 4.15612C15.9922 4.0264 15.9976 3.89392 16.0283 3.76625C16.0591 3.63859 16.1137 3.51823 16.191 3.41206Z" fill="black"/>
</svg>
