<svg width="24" height="24" viewBox="0 0 24 24" fill="none" xmlns="http://www.w3.org/2000/svg">
<path d="M12 1.67004C12.955 1.67004 13.845 2.13704 14.39 2.91704L14.495 3.07704L22.609 16.625C22.8556 17.0521 22.9898 17.5348 22.9989 18.0279C23.0081 18.5209 22.892 19.0083 22.6615 19.4442C22.431 19.8802 22.0936 20.2505 21.6809 20.5205C21.2682 20.7905 20.7938 20.9514 20.302 20.988L20.107 20.996H3.882C3.38971 20.9905 2.90684 20.8603 2.47847 20.6177C2.05011 20.375 1.69021 20.0277 1.43237 19.6083C1.17453 19.1889 1.02716 18.711 1.00402 18.2192C0.980869 17.7274 1.0827 17.2378 1.3 16.796L1.399 16.611L9.509 3.07304C9.76867 2.64486 10.1343 2.29081 10.5706 2.04506C11.0069 1.79931 11.4992 1.67015 12 1.67004ZM12.01 15L11.883 15.007C11.64 15.036 11.4159 15.153 11.2534 15.336C11.0909 15.519 11.0011 15.7553 11.0011 16C11.0011 16.2448 11.0909 16.4811 11.2534 16.6641C11.4159 16.8471 11.64 16.9641 11.883 16.993L12 17L12.127 16.993C12.3701 16.9641 12.5941 16.8471 12.7566 16.6641C12.9191 16.4811 13.0089 16.2448 13.0089 16C13.0089 15.7553 12.9191 15.519 12.7566 15.336C12.5941 15.153 12.3701 15.036 12.127 15.007L12.01 15ZM12 8.00004C11.7551 8.00008 11.5187 8.09 11.3356 8.25276C11.1526 8.41552 11.0357 8.63979 11.007 8.88304L11 9.00004V13L11.007 13.117C11.0359 13.3601 11.153 13.5841 11.336 13.7466C11.519 13.9092 11.7552 13.9989 12 13.9989C12.2448 13.9989 12.481 13.9092 12.664 13.7466C12.847 13.5841 12.9641 13.3601 12.993 13.117L13 13V9.00004L12.993 8.88304C12.9643 8.63979 12.8474 8.41552 12.6644 8.25276C12.4813 8.09 12.2449 8.00008 12 8.00004Z" fill="black"/>
</svg>
