<svg width="24" height="24" viewBox="0 0 24 24" fill="none" xmlns="http://www.w3.org/2000/svg">
<path d="M7 17C6.4 17 6 16.6 6 16V10C6 9.4 5.6 9 5 9C4.4 9 4 9.4 4 10V16C4 16.6 3.6 17 3 17C2.4 17 2 16.6 2 16V10C2 8.3 3.3 7 5 7C6.7 7 8 8.3 8 10V16C8 16.6 7.6 17 7 17Z" fill="black"/>
<path d="M7 14H3C2.4 14 2 13.6 2 13C2 12.4 2.4 12 3 12H7C7.6 12 8 12.4 8 13C8 13.6 7.6 14 7 14Z" fill="black"/>
<path d="M12 17C10.3 17 9 15.7 9 14V8C9 7.4 9.4 7 10 7C10.6 7 11 7.4 11 8V10.2C11.3 10.1 11.6 10 12 10C13.7 10 15 11.3 15 13V14C15 15.7 13.7 17 12 17ZM11 13V14C11 14.6 11.4 15 12 15C12.6 15 13 14.6 13 14V13C13 12.4 12.6 12 12 12C11.4 12 11 12.4 11 13Z" fill="black"/>
<path d="M19 17C18.2 17 17.4 16.7 16.9 16.1C16.4 15.5 16 14.8 16 14V13C16 11.9 16.6 10.9 17.5 10.4C18.2 10 19 9.9 19.8 10.1C20.6 10.3 21.2 10.8 21.6 11.5C21.9 12 21.7 12.6 21.2 12.9C20.7 13.2 20.1 13 19.8 12.5C19.7 12.3 19.5 12.1 19.2 12C18.9 11.9 18.7 12 18.4 12.1C18.2 12.3 18 12.6 18 13V14C18 14.3 18.1 14.5 18.3 14.7C18.5 14.9 18.7 15 19 15C19.4 15 19.7 14.8 19.9 14.5C20.2 14 20.8 13.9 21.3 14.1C21.8 14.4 21.9 15 21.7 15.5C21.1 16.4 20.1 17 19 17Z" fill="black"/>
</svg>
