<svg width="24" height="24" viewBox="0 0 24 24" fill="none" xmlns="http://www.w3.org/2000/svg">
<path d="M21 22C20.7 22 20.5 21.9 20.3 21.7L2.3 3.7C1.9 3.3 1.9 2.7 2.3 2.3C2.7 1.9 3.3 1.9 3.7 2.3L21.7 20.3C22.1 20.7 22.1 21.3 21.7 21.7C21.5 21.9 21.3 22 21 22Z" fill="black"/>
<path d="M16 13C15.4 13 15 12.6 15 12C15 11.2 14.7 10.4 14.1 9.9C13.7 9.5 13.7 8.9 14.1 8.5C14.5 8.1 15.1 8.1 15.5 8.5C16.5 9.4 17 10.7 17 12C17 12.6 16.6 13 16 13Z" fill="black"/>
<path d="M19.3 16.3C19.2 16.3 19 16.3 18.9 16.2C18.4 16 18.2 15.4 18.4 14.9C19.6 12.2 19 9.1 17 7C16.6 6.6 16.6 6 17 5.6C17.4 5.2 18 5.2 18.4 5.6C21 8.2 21.8 12.3 20.2 15.7C20 16.1 19.7 16.3 19.3 16.3Z" fill="black"/>
<path d="M9.2 15.8C8.9 15.8 8.7 15.7 8.5 15.5C6.6 13.6 6.6 10.4 8.5 8.4C8.9 8 9.5 8 9.9 8.4C10.3 8.8 10.3 9.4 9.9 9.8C8.7 11 8.7 12.9 9.9 14C10.3 14.4 10.3 15 9.9 15.4C9.7 15.7 9.4 15.8 9.2 15.8Z" fill="black"/>
<path d="M6.3 18.7C6 18.7 5.8 18.6 5.6 18.4C2.1 14.9 2.1 9.2 5.6 5.7C6 5.3 6.6 5.3 7 5.7C7.4 6.1 7.4 6.7 7 7.1C4.3 9.8 4.3 14.2 7 17C7.4 17.4 7.4 18 7 18.4C6.8 18.6 6.6 18.7 6.3 18.7Z" fill="black"/>
</svg>
