<svg width="24" height="24" viewBox="0 0 24 24" fill="none" xmlns="http://www.w3.org/2000/svg">
<path d="M12.0001 13C11.4001 13 11.0001 12.6 11.0001 12C11.0001 11.4 11.4001 11 12.0001 11C12.6001 11 13.0001 11.4 13.0001 12C13.0001 12.6 12.6001 13 12.0001 13Z" fill="black"/>
<path d="M14.8001 15.8C14.5001 15.8 14.3001 15.7 14.1001 15.5C13.7001 15.1 13.7001 14.5 14.1001 14.1C15.3001 12.9 15.3001 11 14.1001 9.90002C13.7001 9.50002 13.7001 8.90002 14.1001 8.50002C14.5001 8.10002 15.1001 8.10002 15.5001 8.50002C17.4001 10.4 17.4001 13.6 15.5001 15.6C15.3001 15.7 15.1001 15.8 14.8001 15.8Z" fill="black"/>
<path d="M17.7001 18.7C17.4001 18.7 17.2001 18.6 17.0001 18.4C16.6001 18 16.6001 17.4 17.0001 17C19.7001 14.3 19.7001 9.80002 17.0001 7.10002C16.6001 6.70002 16.6001 6.10002 17.0001 5.70002C17.4001 5.30002 18.0001 5.30002 18.4001 5.70002C21.9001 9.20002 21.9001 14.9 18.4001 18.4C18.2001 18.6 17.9001 18.7 17.7001 18.7Z" fill="black"/>
<path d="M9.2001 15.8C8.9001 15.8 8.7001 15.7 8.5001 15.5C6.6001 13.6 6.6001 10.4 8.5001 8.40002C8.9001 8.00002 9.5001 8.00002 9.9001 8.40002C10.3001 8.80002 10.3001 9.40002 9.9001 9.80002C8.7001 11 8.7001 12.9 9.9001 14C10.3001 14.4 10.3001 15 9.9001 15.4C9.7001 15.7 9.4001 15.8 9.2001 15.8Z" fill="black"/>
<path d="M6.3001 18.7C6.0001 18.7 5.8001 18.6 5.6001 18.4C2.1001 14.9 2.1001 9.20002 5.6001 5.70002C6.0001 5.30002 6.6001 5.30002 7.0001 5.70002C7.4001 6.10002 7.4001 6.70002 7.0001 7.10002C4.3001 9.80002 4.3001 14.2 7.0001 17C7.4001 17.4 7.4001 18 7.0001 18.4C6.8001 18.6 6.6001 18.7 6.3001 18.7Z" fill="black"/>
</svg>
