<svg width="24" height="24" viewBox="0 0 24 24" fill="none" xmlns="http://www.w3.org/2000/svg">
<path d="M13.9999 17.5C13.6999 17.5 13.3999 17.3 13.1999 17.1L11.9999 15.3L10.7999 17.1C10.4999 17.6 9.8999 17.7 9.3999 17.4C8.9999 17 8.8999 16.4 9.1999 15.9L10.9999 13.2V12.2H10.8999L8.6999 11.5C8.1999 11.3 7.8999 10.8 8.0999 10.2C8.2999 9.7 8.7999 9.4 9.3999 9.6L11.5999 10.3C11.8999 10.4 12.1999 10.7 12.2999 11C12.7999 11.1 13.0999 11.5 13.0999 12V13.2L14.8999 15.9C15.1999 16.4 15.0999 17 14.5999 17.3C14.3999 17.4 14.1999 17.5 13.9999 17.5ZM14.5999 11.6C14.1999 11.6 13.7999 11.3 13.6999 10.9C13.4999 10.4 13.7999 9.8 14.2999 9.6L14.6999 9.5C15.1999 9.3 15.7999 9.6 15.9999 10.1C16.1999 10.6 15.8999 11.2 15.3999 11.4L14.9999 11.5C14.7999 11.6 14.6999 11.6 14.5999 11.6Z" fill="black"/>
<path d="M11.9999 22.1C11.8999 22.1 11.8999 22.1 11.9999 22.1C9.1999 22.1 6.6999 21 4.8999 19.1C3.0999 17.2 1.8999 14.6 1.8999 12C1.8999 9.3 2.9999 6.8 4.8999 5C5.2999 4.6 5.8999 4.6 6.2999 5C6.6999 5.4 6.6999 6 6.2999 6.4C4.7999 7.8 3.9999 9.8 3.8999 12C3.8999 14.1 4.6999 16.2 6.1999 17.7C7.6999 19.2 9.6999 20.1 11.7999 20.1C13.8999 20.1 15.9999 19.3 17.4999 17.8L17.5999 17.7C17.9999 17.3 18.5999 17.3 18.9999 17.7C19.3999 18.1 19.3999 18.7 18.9999 19.1V19.2C17.0999 21 14.5999 22.1 11.9999 22.1ZM19.9999 17C19.7999 17 19.6999 17 19.5999 16.9C19.0999 16.7 18.8999 16 19.1999 15.6C20.1999 13.7 20.2999 11.5 19.6999 9.5C19.0999 7.5 17.5999 5.8 15.6999 4.9C13.3999 3.8 10.7999 3.8 8.4999 4.9C7.9999 5.1 7.3999 4.9 7.1999 4.5C6.7999 3.9 6.9999 3.3 7.4999 3.1C10.2999 1.7 13.6999 1.7 16.4999 3.1C18.8999 4.3 20.6999 6.4 21.4999 8.9C22.2999 11.4 22.0999 14.1 20.8999 16.5C20.7999 16.8 20.3999 17 19.9999 17Z" fill="black"/>
<path d="M11.9999 9C11.5999 9 11.1999 8.8 11.0999 8.4C10.7999 8.2 10.4999 7.9 10.4999 7.5C10.4999 6.7 11.1999 6 11.9999 6C12.7999 6 13.4999 6.7 13.4999 7.5C13.4999 8.3 12.7999 9 11.9999 9Z" fill="black"/>
<path d="M20.9999 22C20.6999 22 20.4999 21.9 20.2999 21.7L2.2999 3.7C1.8999 3.3 1.8999 2.7 2.2999 2.3C2.6999 1.9 3.2999 1.9 3.6999 2.3L21.6999 20.3C22.0999 20.7 22.0999 21.3 21.6999 21.7C21.4999 21.9 21.2999 22 20.9999 22Z" fill="black"/>
</svg>
