<svg width="24" height="24" viewBox="0 0 24 24" fill="none" xmlns="http://www.w3.org/2000/svg">
<path d="M6 13C4.3 13 3 11.7 3 10C3 8.3 4.3 7 6 7C7.7 7 9 8.3 9 10C9 11.7 7.7 13 6 13ZM6 9C5.4 9 5 9.4 5 10C5 10.6 5.4 11 6 11C6.6 11 7 10.6 7 10C7 9.4 6.6 9 6 9Z" fill="black"/>
<path d="M6 9C5.4 9 5 8.6 5 8V4C5 3.4 5.4 3 6 3C6.6 3 7 3.4 7 4V8C7 8.6 6.6 9 6 9Z" fill="black"/>
<path d="M6 21C5.4 21 5 20.6 5 20V12C5 11.4 5.4 11 6 11C6.6 11 7 11.4 7 12V20C7 20.6 6.6 21 6 21Z" fill="black"/>
<path d="M12 19C10.3 19 9 17.7 9 16C9 14.3 10.3 13 12 13C13.7 13 15 14.3 15 16C15 17.7 13.7 19 12 19ZM12 15C11.4 15 11 15.4 11 16C11 16.6 11.4 17 12 17C12.6 17 13 16.6 13 16C13 15.4 12.6 15 12 15Z" fill="black"/>
<path d="M12 15C11.4 15 11 14.6 11 14V4C11 3.4 11.4 3 12 3C12.6 3 13 3.4 13 4V14C13 14.6 12.6 15 12 15Z" fill="black"/>
<path d="M12 21C11.4 21 11 20.6 11 20V18C11 17.4 11.4 17 12 17C12.6 17 13 17.4 13 18V20C13 20.6 12.6 21 12 21Z" fill="black"/>
<path d="M18 10C16.3 10 15 8.7 15 7C15 5.3 16.3 4 18 4C19.7 4 21 5.3 21 7C21 8.7 19.7 10 18 10ZM18 6C17.4 6 17 6.4 17 7C17 7.6 17.4 8 18 8C18.6 8 19 7.6 19 7C19 6.4 18.6 6 18 6Z" fill="black"/>
<path d="M18 6C17.4 6 17 5.6 17 5V4C17 3.4 17.4 3 18 3C18.6 3 19 3.4 19 4V5C19 5.6 18.6 6 18 6Z" fill="black"/>
<path d="M18 21C17.4 21 17 20.6 17 20V9C17 8.4 17.4 8 18 8C18.6 8 19 8.4 19 9V20C19 20.6 18.6 21 18 21Z" fill="black"/>
</svg>
