<svg width="24" height="24" viewBox="0 0 24 24" fill="none" xmlns="http://www.w3.org/2000/svg">
<path d="M17.0002 21.0001H6.90018C6.60018 21.0001 6.30018 20.9001 6.10018 20.6001C3.30018 17.2001 3.30018 10.7001 6.10018 7.30006C6.30018 7.10006 6.60018 7.00006 6.90018 7.00006H11.0002V5.10006L4.10018 6.00006C3.60018 6.10006 3.10018 5.70006 3.00018 5.10006C2.90018 4.60006 3.30018 4.10006 3.90018 4.00006L19.9002 2.00006C20.4002 1.90006 20.9002 2.30006 21.0002 2.90006C21.1002 3.40006 20.7002 3.90006 20.1002 4.00006L13.0002 4.90006V7.00006H17.2002C17.5002 7.00006 17.8002 7.10006 18.0002 7.40006C20.8002 10.8001 20.7002 17.4001 17.8002 20.7001C17.6002 20.9001 17.3002 21.0001 17.0002 21.0001ZM7.40018 19.0001H16.5002C17.3002 17.9001 17.8002 16.5001 17.9002 15.0001H6.00018C6.20018 16.5001 6.60018 17.9001 7.40018 19.0001ZM13.0002 13.0001H18.0002C17.9002 11.5001 17.5002 10.1001 16.7002 9.00006H13.0002V13.0001ZM6.00018 13.0001H11.0002V9.00006H7.40018C6.60018 10.1001 6.20018 11.5001 6.00018 13.0001Z" fill="black"/>
</svg>
