<svg width="24" height="24" viewBox="0 0 24 24" fill="none" xmlns="http://www.w3.org/2000/svg">
<path d="M17.1 19.1C17 19.1 16.9 19.1 16.8 19.1L12.5 17.8C12 17.6 11.7 17.1 11.8 16.6C11.9 16.1 12.5 15.8 13 15.9L17.3 17.2C17.8 17.4 18.1 17.9 18 18.4C17.9 18.8 17.5 19.1 17.1 19.1ZM7.2 12.2C6.8 12.2 6.4 11.9 6.2 11.5L5 7.2C4.8 6.7 5.1 6.1 5.6 6C6.1 5.8 6.7 6.1 6.8 6.7L8.1 10.9C8.3 11.4 8 12 7.5 12.1C7.4 12.2 7.3 12.2 7.2 12.2Z" fill="black"/>
<path d="M11.7 13.3C11.4 13.3 11.2 13.2 11 13C10.6 12.6 10.6 12 11 11.6L16.8 5.8C17.2 5.4 17.8 5.4 18.2 5.8C18.6 6.2 18.6 6.8 18.2 7.2L12.4 13C12.2 13.2 11.9 13.3 11.7 13.3Z" fill="black"/>
<path d="M5.5 8C4.1 8 3 6.9 3 5.5C3 4.1 4.1 3 5.5 3C6.9 3 8 4.1 8 5.5C8 6.9 6.9 8 5.5 8ZM5.5 5C5.2 5 5 5.2 5 5.5C5 5.8 5.2 6 5.5 6C5.8 6 6 5.8 6 5.5C6 5.2 5.8 5 5.5 5Z" fill="black"/>
<path d="M18.5 8C17.1 8 16 6.9 16 5.5C16 4.1 17.1 3 18.5 3C19.9 3 21 4.1 21 5.5C21 6.9 19.9 8 18.5 8ZM18.5 5C18.2 5 18 5.2 18 5.5C18 5.8 18.2 6 18.5 6C18.8 6 19 5.8 19 5.5C19 5.2 18.8 5 18.5 5Z" fill="black"/>
<path d="M18.5 21C17.1 21 16 19.9 16 18.5C16 17.1 17.1 16 18.5 16C19.9 16 21 17.1 21 18.5C21 19.9 19.9 21 18.5 21ZM18.5 18C18.2 18 18 18.2 18 18.5C18 18.8 18.2 19 18.5 19C18.8 19 19 18.8 19 18.5C19 18.2 18.8 18 18.5 18Z" fill="black"/>
<path d="M8.5 21C5.5 21 3 18.5 3 15.5C3 12.5 5.5 10 8.5 10C11.5 10 14 12.5 14 15.5C14 18.5 11.5 21 8.5 21ZM8.5 12C6.6 12 5 13.6 5 15.5C5 17.4 6.6 19 8.5 19C10.4 19 12 17.4 12 15.5C12 13.6 10.4 12 8.5 12Z" fill="black"/>
</svg>
