<svg width="24" height="24" viewBox="0 0 24 24" fill="none" xmlns="http://www.w3.org/2000/svg">
<path d="M12 17C11.4 17 11 16.6 11 16V10C11 9.4 10.6 9 10 9C9.4 9 9 9.4 9 10V16C9 16.6 8.6 17 8 17C7.4 17 7 16.6 7 16V10C7 8.3 8.3 7 10 7C11.7 7 13 8.3 13 10V16C13 16.6 12.6 17 12 17Z" fill="black"/>
<path d="M12 14H8C7.4 14 7 13.6 7 13C7 12.4 7.4 12 8 12H12C12.6 12 13 12.4 13 13C13 13.6 12.6 14 12 14Z" fill="black"/>
<path d="M16 17C15.4 17 15 16.6 15 16V8C15 7.4 15.4 7 16 7C16.6 7 17 7.4 17 8V16C17 16.6 16.6 17 16 17Z" fill="black"/>
</svg>
