<svg width="24" height="24" viewBox="0 0 24 24" fill="none" xmlns="http://www.w3.org/2000/svg">
<path d="M13.0001 4H11.0001C10.4001 4 10.0001 3.6 10.0001 3C10.0001 2.4 10.4001 2 11.0001 2H13.0001C13.6001 2 14.0001 2.4 14.0001 3C14.0001 3.6 13.6001 4 13.0001 4Z" fill="black"/>
<path d="M12.0001 7C11.4001 7 11.0001 6.6 11.0001 6V3C11.0001 2.4 11.4001 2 12.0001 2C12.6001 2 13.0001 2.4 13.0001 3V6C13.0001 6.6 12.6001 7 12.0001 7Z" fill="black"/>
<path d="M16.2001 17H7.80012C6.50012 17 5.30012 16.1 4.90012 14.9L3.10012 8.9C2.60012 7.3 3.50012 5.6 5.10012 5.2C5.40012 5 5.70012 5 6.00012 5H18.0001C18.8001 5 19.6001 5.3 20.1001 5.9C20.6001 6.5 21.0001 7.2 21.0001 8C21.0001 8.3 21.0001 8.6 20.9001 8.9L19.1001 14.9C18.7001 16.1 17.5001 17 16.2001 17ZM6.00012 7C5.90012 7 5.80012 7 5.70012 7C5.20012 7.2 4.90012 7.8 5.00012 8.3L6.80012 14.3C7.00012 14.7 7.40012 15 7.80012 15H16.2001C16.6001 15 17.0001 14.7 17.2001 14.3L19.0001 8.3C19.0001 8.2 19.0001 8.1 19.0001 8C19.0001 7.7 18.9001 7.5 18.7001 7.3C18.5001 7.1 18.3001 7 18.0001 7H6.00012Z" fill="black"/>
<path d="M10.0001 22C9.40012 22 9.00012 21.6 9.00012 21V16.1L7.50012 6.1C7.40012 5.6 7.80012 5.1 8.40012 5C8.90012 4.9 9.50012 5.3 9.50012 5.8L11.0001 15.8V20.9C11.0001 21.6 10.6001 22 10.0001 22Z" fill="black"/>
<path d="M14.0001 22C13.4001 22 13.0001 21.6 13.0001 21V15.9L14.5001 5.9C14.6001 5.4 15.1001 5 15.6001 5.1C16.1001 5.2 16.5001 5.7 16.4001 6.2L15.0001 16.1V21C15.0001 21.6 14.6001 22 14.0001 22Z" fill="black"/>
</svg>
