<svg width="24" height="24" viewBox="0 0 24 24" fill="none" xmlns="http://www.w3.org/2000/svg">
<path d="M13 23H11C9.9 23 9 22.1 9 21V20C9 18.9 9.9 18 11 18H13C14.1 18 15 18.9 15 20V21C15 22.1 14.1 23 13 23ZM11 20V21H13V20H11Z" fill="black"/>
<path d="M12 17C7.9 17 5 11.6 5 8C5 4.1 8.1 1 12 1C15.9 1 19 4.1 19 8C19 11.6 16.1 17 12 17ZM12 3C9.2 3 7 5.2 7 8C7 11 9.5 15 12 15C14.5 15 17 11 17 8C17 5.2 14.8 3 12 3Z" fill="black"/>
<path d="M12 17C9.1 17 9 9.8 9 9C9 8.2 9.1 1 12 1C14.9 1 15 8.2 15 9C15 9.8 14.9 17 12 17ZM12 3.2C11.6 3.9 11 5.9 11 9C11 12.1 11.6 14.2 12 14.8C12.4 14.1 13 12.1 13 9C13 5.9 12.4 3.8 12 3.2Z" fill="black"/>
</svg>
