<svg width="24" height="24" viewBox="0 0 24 24" fill="none" xmlns="http://www.w3.org/2000/svg">
<path d="M5 20C4.4 20 4 19.6 4 19C4 18.4 4.4 18 5 18C6.1 18 7 17.1 7 16C7 15.4 7.4 15 8 15C8.6 15 9 15.4 9 16C9 18.2 7.2 20 5 20Z" fill="black"/>
<path d="M19 20C16.8 20 15 18.2 15 16C15 15.4 15.4 15 16 15C16.6 15 17 15.4 17 16C17 17.1 17.9 18 19 18C19.6 18 20 18.4 20 19C20 19.6 19.6 20 19 20Z" fill="black"/>
<path d="M12 21C11.4 21 11 20.6 11 20V16C11 15.4 11.4 15 12 15C12.6 15 13 15.4 13 16V20C13 20.6 12.6 21 12 21Z" fill="black"/>
<path d="M19 14H5C3.3 14 2 12.7 2 11V7C2 5.3 3.3 4 5 4H19C20.7 4 22 5.3 22 7V11C22 12.7 20.7 14 19 14ZM5 6C4.4 6 4 6.4 4 7V11C4 11.6 4.4 12 5 12H19C19.6 12 20 11.6 20 11V7C20 6.4 19.6 6 19 6H5Z" fill="black"/>
<path d="M17 14C16.4 14 16 13.6 16 13V10H8V13C8 13.6 7.6 14 7 14C6.4 14 6 13.6 6 13V10C6 8.9 6.9 8 8 8H16C17.1 8 18 8.9 18 10V13C18 13.6 17.6 14 17 14Z" fill="black"/>
</svg>
