<svg width="24" height="24" viewBox="0 0 24 24" fill="none" xmlns="http://www.w3.org/2000/svg">
<path d="M12.0002 20.9999C7.6002 20.9999 4.0002 17.3999 4.0002 12.9999C4.0002 8.59995 7.6002 4.99995 12.0002 4.99995C16.4002 4.99995 20.0002 8.59995 20.0002 12.9999C20.0002 17.3999 16.4002 20.9999 12.0002 20.9999ZM12.0002 6.99995C8.7002 6.99995 6.0002 9.69995 6.0002 12.9999C6.0002 16.2999 8.7002 18.9999 12.0002 18.9999C15.3002 18.9999 18.0002 16.2999 18.0002 12.9999C18.0002 9.69995 15.3002 6.99995 12.0002 6.99995Z" fill="black"/>
<path d="M4.3002 6.99995C3.9002 6.99995 3.6002 6.89995 3.4002 6.59995C3.1002 6.09995 3.2002 5.49995 3.7002 5.19995L6.5002 3.19995C6.9002 2.89995 7.5002 2.99995 7.8002 3.39995C8.1002 3.89995 8.0002 4.49995 7.60019 4.79995L4.8002 6.79995C4.7002 6.89995 4.5002 6.99995 4.3002 6.99995Z" fill="black"/>
<path d="M19.7002 6.99995C19.5002 6.99995 19.3002 6.89995 19.1002 6.79995L16.3002 4.79995C15.9002 4.49995 15.8002 3.79995 16.1002 3.39995C16.4002 2.99995 17.0002 2.89995 17.5002 3.19995L20.3002 5.19995C20.7002 5.49995 20.8002 6.19995 20.5002 6.59995C20.4002 6.89995 20.1002 6.99995 19.7002 6.99995Z" fill="black"/>
<path d="M11.0002 16.9999C10.7002 16.9999 10.4002 16.7999 10.2002 16.5999L8.5002 13.9999H8.0002C7.4002 13.9999 7.0002 13.5999 7.0002 12.9999C7.0002 12.3999 7.4002 11.9999 8.0002 11.9999H9.0002C9.3002 11.9999 9.6002 12.1999 9.8002 12.3999L10.7002 13.6999L12.1002 9.59995C12.2002 9.19995 12.5002 8.99995 12.9002 8.89995C13.3002 8.89995 13.7002 8.99995 13.9002 9.29995L15.6002 11.8999H16.0002C16.6002 11.8999 17.0002 12.2999 17.0002 12.8999C17.0002 13.4999 16.6002 13.8999 16.0002 13.8999H15.0002C14.7002 13.8999 14.4002 13.6999 14.2002 13.4999L13.3002 12.1999L11.9002 16.2999C11.8002 16.6999 11.5002 16.8999 11.1002 16.9999H11.0002Z" fill="black"/>
</svg>
