<svg width="24" height="24" viewBox="0 0 24 24" fill="none" xmlns="http://www.w3.org/2000/svg">
<path d="M12 14C11.4 14 11 13.6 11 13V8.99995C11 8.39995 11.4 7.99995 12 7.99995C12.6 7.99995 13 8.39995 13 8.99995V13C13 13.6 12.6 14 12 14Z" fill="black"/>
<path d="M3.9 21C3.4 21 2.9 20.9 2.5 20.6C1.8 20.2 1.3 19.5999 1.1 18.7999C0.9 18 1 17.3 1.4 16.6L9.5 3.09995C9.7 2.69995 10.1 2.39995 10.5 2.09995C11.2 1.69995 11.9 1.59995 12.7 1.79995C13.5 1.99995 14.1 2.49995 14.5 3.09995L22.6 16.6C22.9 17 23 17.5 23 18C23 19.6 21.7 20.9 20.1 20.9H3.9V21ZM11.2 4.09995L3.1 17.6C3 17.8 3 18.0999 3 18.2999C3.1 18.5 3.2 18.6999 3.4 18.9C3.6 19 3.7 19 3.9 19H20.1C20.6 19 21 18.6 21 18.1C21 17.9 21 17.8 20.9 17.7L12.8 4.09995C12.7 3.89995 12.5 3.69995 12.2 3.69995C12 3.59995 11.7 3.69995 11.5 3.79995C11.4 3.89995 11.3 3.99995 11.2 4.09995Z" fill="black"/>
<path d="M12 17C11.4 17 11 16.6 11 16C11 15.4 11.4 15 12 15C12.6 15 13 15.4 13 16C13 16.6 12.6 17 12 17Z" fill="black"/>
</svg>
