<svg width="24" height="24" viewBox="0 0 24 24" fill="none" xmlns="http://www.w3.org/2000/svg">
<path d="M12 22C4.2 22 2 19.8 2 12C2 4.2 4.2 2 12 2C19.8 2 22 4.2 22 12C22 19.8 19.8 22 12 22ZM12 4C5.3 4 4 5.3 4 12C4 18.7 5.3 20 12 20C18.7 20 20 18.7 20 12C20 5.3 18.7 4 12 4Z" fill="black"/>
<path d="M12 13C11.4 13 11 12.6 11 12V8C11 7.4 11.4 7 12 7C12.6 7 13 7.4 13 8V12C13 12.6 12.6 13 12 13Z" fill="black"/>
<path d="M12 17C11.4 17 11 16.6 11 16C11 15.4 11.4 15 12 15C12.6 15 13 15.4 13 16C13 16.6 12.6 17 12 17Z" fill="black"/>
</svg>
