<svg width="24" height="24" viewBox="0 0 24 24" fill="none" xmlns="http://www.w3.org/2000/svg">
<path d="M20 21H3.9C3.4 21 2.9 20.9 2.5 20.6C1.8 20.2 1.3 19.5999 1.1 18.7999C0.9 18 1 17.3 1.4 16.6L7 7.29995C7.3 6.79995 7.9 6.69995 8.3 6.99995C8.8 7.19995 9 7.89995 8.7 8.29995L3.1 17.6C3 17.8 3 18.0999 3 18.2999C3.1 18.5 3.2 18.6999 3.4 18.9C3.6 19 3.7 19 3.9 19H20C20.6 19 21 19.4 21 20C21 20.6 20.6 21 20 21ZM22 19C21.5 19 21 18.6 21 18C21 17.9 21 17.7 20.9 17.6L12.8 4.09995C12.7 3.89995 12.5 3.69995 12.2 3.69995C12 3.59995 11.7 3.69995 11.5 3.79995C11.4 3.89995 11.3 3.99995 11.2 4.09995L10.2 5.79995C9.9 6.29995 9.3 6.49995 8.8 6.19995C8.3 5.89995 8.2 5.29995 8.5 4.79995L9.5 3.09995C9.7 2.69995 10.1 2.39995 10.5 2.09995C11.2 1.69995 11.9 1.59995 12.7 1.79995C13.5 1.99995 14.1 2.49995 14.5 3.09995L22.6 16.6C22.8 17 23 17.5 23 18C23 18.5 22.6 19 22 19Z" fill="black"/>
<path d="M12 17C11.4 17 11 16.6 11 16C11 15.4 11.4 15 12 15C12.6 15 13 15.4 13 16C13 16.6 12.6 17 12 17Z" fill="black"/>
<path d="M21 22C20.7 22 20.5 21.9 20.3 21.7L2.3 3.69995C1.9 3.29995 1.9 2.69995 2.3 2.29995C2.7 1.89995 3.3 1.89995 3.7 2.29995L21.7 20.2999C22.1 20.6999 22.1 21.3 21.7 21.7C21.5 21.9 21.3 22 21 22Z" fill="black"/>
<path d="M12 8.99995C11.4 8.99995 11 8.59995 11 7.99995V6.99995C11 6.39995 11.4 5.99995 12 5.99995C12.6 5.99995 13 6.39995 13 6.99995V7.99995C13 8.59995 12.6 8.99995 12 8.99995Z" fill="black"/>
</svg>
