<svg width="24" height="24" viewBox="0 0 24 24" fill="none" xmlns="http://www.w3.org/2000/svg">
<path d="M19 22H5C3.3 22 2 20.7 2 19V5C2 3.3 3.3 2 5 2H19C20.7 2 22 3.3 22 5V19C22 20.7 20.7 22 19 22ZM5 4C4.4 4 4 4.4 4 5V19C4 19.6 4.4 20 5 20H19C19.6 20 20 19.6 20 19V5C20 4.4 19.6 4 19 4H5Z" fill="black"/>
<path d="M12 13C11.4 13 11 12.6 11 12V8C11 7.4 11.4 7 12 7C12.6 7 13 7.4 13 8V12C13 12.6 12.6 13 12 13Z" fill="black"/>
<path d="M12 17C11.4 17 11 16.6 11 16C11 15.4 11.4 15 12 15C12.6 15 13 15.4 13 16C13 16.6 12.6 17 12 17Z" fill="black"/>
</svg>
