<svg width="24" height="24" viewBox="0 0 24 24" fill="none" xmlns="http://www.w3.org/2000/svg">
<path d="M4 21C3.4 21 3 20.6 3 20V4C3 3.4 3.4 3 4 3C4.6 3 5 3.4 5 4V20C5 20.6 4.6 21 4 21Z" fill="black"/>
<path d="M20 7H8C7.4 7 7 6.6 7 6C7 5.4 7.4 5 8 5H20C20.6 5 21 5.4 21 6C21 6.6 20.6 7 20 7Z" fill="black"/>
<path d="M14 13H8C7.4 13 7 12.6 7 12C7 11.4 7.4 11 8 11H14C14.6 11 15 11.4 15 12C15 12.6 14.6 13 14 13Z" fill="black"/>
<path d="M18 19H8C7.4 19 7 18.6 7 18C7 17.4 7.4 17 8 17H18C18.6 17 19 17.4 19 18C19 18.6 18.6 19 18 19Z" fill="black"/>
</svg>
