<svg width="24" height="24" viewBox="0 0 24 24" fill="none" xmlns="http://www.w3.org/2000/svg">
<path d="M20 21C19.4 21 19 20.6 19 20V4C19 3.4 19.4 3 20 3C20.6 3 21 3.4 21 4V20C21 20.6 20.6 21 20 21Z" fill="black"/>
<path d="M16 7H4C3.4 7 3 6.6 3 6C3 5.4 3.4 5 4 5H16C16.6 5 17 5.4 17 6C17 6.6 16.6 7 16 7Z" fill="black"/>
<path d="M16 13H10C9.4 13 9 12.6 9 12C9 11.4 9.4 11 10 11H16C16.6 11 17 11.4 17 12C17 12.6 16.6 13 16 13Z" fill="black"/>
<path d="M16 19H6C5.4 19 5 18.6 5 18C5 17.4 5.4 17 6 17H16C16.6 17 17 17.4 17 18C17 18.6 16.6 19 16 19Z" fill="black"/>
</svg>
