<svg width="24" height="24" viewBox="0 0 24 24" fill="none" xmlns="http://www.w3.org/2000/svg">
<path d="M17 11H14C13.4 11 13 10.6 13 10V7.00002C13 6.70002 13.1 6.50002 13.3 6.30002L16.3 3.30002C16.6 3.00002 17 2.90002 17.4 3.10002C17.8 3.20002 18 3.60002 18 4.00002V6.00002H20C20.4 6.00002 20.8 6.20002 20.9 6.60002C21.1 7.00002 21 7.40002 20.7 7.70002L17.7 10.7C17.5 10.9 17.3 11 17 11ZM15 9.00002H16.6L17.6 8.00002H17C16.4 8.00002 16 7.60002 16 7.00002V6.40002L15 7.40002V9.00002Z" fill="black"/>
<path d="M5 20C4.7 20 4.5 19.9 4.3 19.7C3.9 19.3 3.9 18.7 4.3 18.3L13.3 9.30002C13.7 8.90002 14.3 8.90002 14.7 9.30002C15.1 9.70002 15.1 10.3 14.7 10.7L5.7 19.7C5.5 19.9 5.3 20 5 20Z" fill="black"/>
<path d="M9 20H5C4.4 20 4 19.6 4 19V15C4 14.4 4.4 14 5 14C5.6 14 6 14.4 6 15V18H9C9.6 18 10 18.4 10 19C10 19.6 9.6 20 9 20Z" fill="black"/>
</svg>
