<svg width="24" height="24" viewBox="0 0 24 24" fill="none" xmlns="http://www.w3.org/2000/svg">
<path d="M21 8C20.7 8 20.5 7.9 20.3 7.7L17 4.4L13.7 7.7C13.3 8.1 12.7 8.1 12.3 7.7C11.9 7.3 11.9 6.7 12.3 6.3L16.3 2.3C16.7 1.9 17.3 1.9 17.7 2.3L21.7 6.3C22.1 6.7 22.1 7.3 21.7 7.7C21.5 7.9 21.3 8 21 8Z" fill="black"/>
<path d="M14 18H3C2.4 18 2 17.6 2 17C2 16.4 2.4 16 3 16H14C15.1 16 16 15.1 16 14V3C16 2.4 16.4 2 17 2C17.6 2 18 2.4 18 3V14C18 16.2 16.2 18 14 18Z" fill="black"/>
<path d="M7 22C6.7 22 6.5 21.9 6.3 21.7L2.3 17.7C1.9 17.3 1.9 16.7 2.3 16.3L6.3 12.3C6.7 11.9 7.3 11.9 7.7 12.3C8.1 12.7 8.1 13.3 7.7 13.7L4.4 17L7.7 20.3C8.1 20.7 8.1 21.3 7.7 21.7C7.5 21.9 7.3 22 7 22Z" fill="black"/>
</svg>
