<svg width="24" height="24" viewBox="0 0 24 24" fill="none" xmlns="http://www.w3.org/2000/svg">
<path d="M17 22C16.7 22 16.5 21.9 16.3 21.7C15.9 21.3 15.9 20.7 16.3 20.3L19.6 17L16.3 13.7C15.9 13.3 15.9 12.7 16.3 12.3C16.7 11.9 17.3 11.9 17.7 12.3L21.7 16.3C22.1 16.7 22.1 17.3 21.7 17.7L17.7 21.7C17.5 21.9 17.3 22 17 22Z" fill="black"/>
<path d="M21 18H10C7.8 18 6 16.2 6 14V3C6 2.4 6.4 2 7 2C7.6 2 8 2.4 8 3V14C8 15.1 8.9 16 10 16H21C21.6 16 22 16.4 22 17C22 17.6 21.6 18 21 18Z" fill="black"/>
<path d="M11 8C10.7 8 10.5 7.9 10.3 7.7L7 4.4L3.7 7.7C3.3 8.1 2.7 8.1 2.3 7.7C1.9 7.3 1.9 6.7 2.3 6.3L6.3 2.3C6.7 1.9 7.3 1.9 7.7 2.3L11.7 6.3C12.1 6.7 12.1 7.3 11.7 7.7C11.5 7.9 11.3 8 11 8Z" fill="black"/>
</svg>
