<svg width="24" height="24" viewBox="0 0 24 24" fill="none" xmlns="http://www.w3.org/2000/svg">
<path d="M7 22C6.4 22 6 21.6 6 21V3C6 2.4 6.4 2 7 2C7.6 2 8 2.4 8 3V21C8 21.6 7.6 22 7 22Z" fill="black"/>
<path d="M10 7C9.7 7 9.5 6.9 9.3 6.7L7 4.4L4.7 6.7C4.3 7.1 3.7 7.1 3.3 6.7C2.9 6.3 2.9 5.7 3.3 5.3L6.3 2.3C6.7 1.9 7.3 1.9 7.7 2.3L10.7 5.3C11.1 5.7 11.1 6.3 10.7 6.7C10.5 6.9 10.3 7 10 7Z" fill="black"/>
<path d="M17 22C16.7 22 16.5 21.9 16.3 21.7L13.3 18.7C12.9 18.3 12.9 17.7 13.3 17.3C13.7 16.9 14.3 16.9 14.7 17.3L17 19.6L19.3 17.3C19.7 16.9 20.3 16.9 20.7 17.3C21.1 17.7 21.1 18.3 20.7 18.7L17.7 21.7C17.5 21.9 17.3 22 17 22Z" fill="black"/>
<path d="M17 22C16.4 22 16 21.6 16 21V3C16 2.4 16.4 2 17 2C17.6 2 18 2.4 18 3V21C18 21.6 17.6 22 17 22Z" fill="black"/>
</svg>
